<?xml version="1.0" encoding="UTF-8"?>
<!DOCTYPE svg PUBLIC "-//W3C//DTD SVG 1.1//EN" "http://www.w3.org/Graphics/SVG/1.1/DTD/svg11.dtd">
<!-- Creator: CorelDRAW X7 -->
<svg xmlns="http://www.w3.org/2000/svg" xml:space="preserve" width="1648.88mm" height="463.652mm" version="1.1" style="shape-rendering:geometricPrecision; text-rendering:geometricPrecision; image-rendering:optimizeQuality; fill-rule:evenodd; clip-rule:evenodd"
viewBox="0 0 45133 12691"
 xmlns:xlink="http://www.w3.org/1999/xlink">
 <defs>
  <style type="text/css">
   <![CDATA[
    .str1 {stroke:#999999;stroke-width:54.7438}
    .str2 {stroke:#999999;stroke-width:82.1156}
    .str0 {stroke:#999999;stroke-width:109.488}
    .fil1 {fill:none}
    .fil2 {fill:#E6E6E6}
    .fil0 {fill:#F6F6F6}
    .fil3 {fill:white}
   ]]>
  </style>
 </defs>
 <g id="Слой_x0020_1">
  <metadata id="CorelCorpID_0Corel-Layer"/>
  <g id="_2536076443600">
   <polygon class="fil0" points="81,6984 1177,6984 1177,4179 4359,4179 4359,5464 5813,5464 5813,6177 6680,6177 6680,4320 6489,4320 6489,3732 9896,3732 9896,4320 9668,4320 9668,5658 10661,5658 10661,2193 13352,3593 13352,4373 14159,4373 14159,4790 14805,4790 14805,2483 17462,2483 17462,4676 18041,4676 18041,3149 18485,3149 18485,2220 18811,2220 18811,1769 20315,1769 20315,2220 20631,2220 20631,3149 21095,3149 21095,4790 21879,4790 21879,4060 23800,4060 23800,3330 23595,3333 23800,3127 23800,3102 23826,3102 24332,2595 24838,3102 24843,3102 24843,3106 25048,3311 24843,3314 24843,4060 25297,4060 25297,4531 25902,4531 25902,2489 26252,2489 26252,2153 27288,2153 27288,1224 27524,1224 27524,2153 28560,2153 28560,2489 28910,2489 28910,4531 29905,4531 29905,3788 30282,3788 30282,3283 33686,3283 33686,3788 34157,3788 34157,4424 34951,4424 34951,1251 35550,1251 35550,0 35785,0 35785,1251 36707,1251 36707,0 36942,0 36942,1251 37514,1251 37514,4787 38342,4787 38342,3784 40952,3784 40952,6005 41753,6005 41753,4901 44942,4901 44942,6177 44942,6984 44942,7555 44942,12636 81,12636 "/>
   <g>
    <line class="fil1 str0" x1="113" y1="12636" x2="44942" y2= "12636" />
    <g>
     <g>
      <path class="fil1 str0" d="M40214 10056l694 0 0 -336 788 0 0 -327 1764 0 0 327 788 0 0 336 694 0 0 542 -4728 0 0 -542zm4728 836l0 1744 -4728 0 0 -1744 4728 0z"/>
      <rect class="fil2 str0" x="40077" y="10598" width="5001" height="294"/>
      <g>
       <rect class="fil1 str1" x="41235" y="10070" width="2686" height="270"/>
       <g>
        <rect class="fil1 str1" x="43857" y="11566" width="701" height="1071"/>
        <rect class="fil3 str1" x="44059" y="11754" width="297" height="646"/>
       </g>
       <g>
        <rect class="fil1 str1" x="42188" y="11345" width="1321" height="1291"/>
        <rect class="fil3 str1" x="42398" y="11555" width="359" height="292"/>
        <rect class="fil3 str1" x="42940" y="11555" width="359" height="292"/>
       </g>
       <g>
        <rect class="fil1 str1" x="40531" y="11345" width="1321" height="1291"/>
        <rect class="fil3 str1" x="41283" y="11555" width="359" height="292"/>
        <rect class="fil3 str1" x="40741" y="11555" width="359" height="292"/>
       </g>
      </g>
     </g>
     <g>
      <polygon class="fil1 str0" points="29058,7714 31132,7714 31132,8328 29058,8328 "/>
      <polygon class="fil2 str0" points="28223,8598 31966,8598 31966,9136 31537,9136 31537,9015 28652,9015 28652,9136 28223,9136 "/>
      <line class="fil1 str0" x1="30735" y1="8553" x2="30735" y2= "8373" />
      <line class="fil1 str0" x1="29455" y1="8553" x2="29455" y2= "8373" />
      <polygon class="fil1 str0" points="28360,12636 31829,12636 31829,9136 31547,9136 31547,9015 28661,9015 28661,9136 28360,9136 "/>
      <g>
       <g>
        <g>
         <g>
          <rect class="fil3 str1" x="28679" y="9442" width="511" height="773"/>
          <rect class="fil3 str1" x="28679" y="9442" width="511" height="387"/>
         </g>
         <g>
          <rect class="fil3 str1" x="29451" y="9442" width="511" height="773"/>
          <rect class="fil3 str1" x="29451" y="9442" width="511" height="387"/>
         </g>
        </g>
        <g>
         <g>
          <rect class="fil3 str1" x="30228" y="9442" width="511" height="773"/>
          <rect class="fil3 str1" x="30228" y="9442" width="511" height="387"/>
         </g>
         <g>
          <rect class="fil3 str1" x="31000" y="9442" width="511" height="773"/>
          <rect class="fil3 str1" x="31000" y="9442" width="511" height="387"/>
         </g>
        </g>
       </g>
       <g>
        <g>
         <g>
          <rect class="fil3 str1" x="28679" y="10506" width="511" height="773"/>
          <rect class="fil3 str1" x="28679" y="10506" width="511" height="387"/>
         </g>
         <g>
          <rect class="fil3 str1" x="29451" y="10506" width="511" height="773"/>
          <rect class="fil3 str1" x="29451" y="10506" width="511" height="387"/>
         </g>
        </g>
        <g>
         <g>
          <rect class="fil3 str1" x="30228" y="10506" width="511" height="773"/>
          <rect class="fil3 str1" x="30228" y="10506" width="511" height="387"/>
         </g>
         <g>
          <rect class="fil3 str1" x="31000" y="10506" width="511" height="773"/>
          <rect class="fil3 str1" x="31000" y="10506" width="511" height="387"/>
         </g>
        </g>
       </g>
       <g>
        <rect class="fil1 str1" x="29779" y="11566" width="631" height="1071"/>
        <rect class="fil3 str1" x="29961" y="11754" width="267" height="646"/>
       </g>
       <g>
        <rect class="fil3 str1" x="28679" y="11547" width="834" height="626"/>
        <rect class="fil1 str1" x="28624" y="12172" width="944" height="222"/>
       </g>
       <g>
        <rect class="fil3 str1" x="30677" y="11547" width="834" height="626"/>
        <rect class="fil1 str1" x="30622" y="12172" width="944" height="222"/>
       </g>
      </g>
     </g>
     <g>
      <path class="fil1 str0" d="M33425 12636l5348 0 0 -3183 -5348 0 0 3183zm1770 -3808l912 -732 912 732 1754 0 0 332c-1783,0 -3566,0 -5348,0l0 -332 1770 0z"/>
      <rect class="fil2 str0" x="33251" y="9160" width="5695" height="294"/>
      <g>
       <g>
        <g>
         <g>
          <rect class="fil3 str1" x="35390" y="9820" width="556" height="1018"/>
          <rect class="fil3 str1" x="35390" y="9820" width="556" height="509"/>
         </g>
         <g>
          <rect class="fil3 str1" x="36230" y="9820" width="556" height="1018"/>
          <rect class="fil3 str1" x="36230" y="9820" width="556" height="509"/>
         </g>
        </g>
        <g>
         <g>
          <rect class="fil3 str1" x="37076" y="9820" width="556" height="1018"/>
          <rect class="fil3 str1" x="37076" y="9820" width="556" height="509"/>
         </g>
         <g>
          <rect class="fil3 str1" x="37916" y="9820" width="556" height="1018"/>
          <rect class="fil3 str1" x="37916" y="9820" width="556" height="509"/>
         </g>
        </g>
        <g>
         <g>
          <rect class="fil3 str1" x="33704" y="9820" width="556" height="1018"/>
          <rect class="fil3 str1" x="33704" y="9820" width="556" height="509"/>
         </g>
         <g>
          <rect class="fil3 str1" x="34544" y="9820" width="556" height="1018"/>
          <rect class="fil3 str1" x="34544" y="9820" width="556" height="509"/>
         </g>
        </g>
       </g>
       <g>
        <rect class="fil1 str1" x="34633" y="11438" width="706" height="1198"/>
        <rect class="fil3 str1" x="34836" y="11649" width="299" height="723"/>
       </g>
       <rect class="fil3 str1" x="33732" y="11438" width="620" height="953"/>
       <rect class="fil3 str1" x="35496" y="11438" width="1185" height="953"/>
       <g>
        <rect class="fil1 str1" x="36886" y="11438" width="706" height="1198"/>
        <rect class="fil3 str1" x="37090" y="11649" width="299" height="723"/>
       </g>
       <rect class="fil3 str1" x="37873" y="11438" width="620" height="953"/>
       <polygon class="fil1 str1" points="36103,8498 36612,8906 35585,8906 "/>
      </g>
     </g>
     <g>
      <polygon class="fil2 str0" points="8631,9301 7983,9733 6709,9733 6709,9564 6089,9564 6089,10124 11173,10124 11173,9564 10553,9564 10553,9733 9279,9733 "/>
      <polygon class="fil1 str0" points="8631,12636 6246,12636 6246,10124 11016,10124 11016,12636 "/>
      <g>
       <polygon class="fil1 str1" points="8635,9607 9033,9888 8229,9888 "/>
       <g>
        <rect class="fil3 str1" x="8376" y="10490" width="511" height="773"/>
        <rect class="fil3 str1" x="8376" y="10490" width="511" height="387"/>
       </g>
       <g>
        <g>
         <rect class="fil3 str1" x="9262" y="10490" width="511" height="773"/>
         <rect class="fil3 str1" x="9262" y="10490" width="511" height="387"/>
        </g>
        <g>
         <rect class="fil3 str1" x="10130" y="10490" width="511" height="773"/>
         <rect class="fil3 str1" x="10130" y="10490" width="511" height="387"/>
        </g>
       </g>
       <g>
        <g>
         <rect class="fil3 str1" x="6621" y="10490" width="511" height="773"/>
         <rect class="fil3 str1" x="6621" y="10490" width="511" height="387"/>
        </g>
        <g>
         <rect class="fil3 str1" x="7489" y="10490" width="511" height="773"/>
         <rect class="fil3 str1" x="7489" y="10490" width="511" height="387"/>
        </g>
       </g>
       <g>
        <rect class="fil1 str1" x="8278" y="11438" width="706" height="1198"/>
        <rect class="fil3 str1" x="8482" y="11649" width="299" height="723"/>
       </g>
       <rect class="fil3 str1" x="6621" y="11438" width="1379" height="953"/>
       <rect class="fil3 str1" x="9262" y="11438" width="1379" height="953"/>
      </g>
     </g>
     <g>
      <rect class="fil2 str0" x="12467" y="8598" width="4276" height="452"/>
      <g>
       <rect class="fil1 str0" x="12613" y="9050" width="3984" height="3586"/>
       <g>
        <rect class="fil3 str1" x="14323" y="9254" width="511" height="773"/>
        <rect class="fil3 str1" x="14323" y="9254" width="511" height="387"/>
       </g>
       <g>
        <rect class="fil3 str1" x="15492" y="9254" width="511" height="773"/>
        <rect class="fil1 str1" x="15492" y="9254" width="511" height="387"/>
       </g>
       <g>
        <rect class="fil3 str1" x="13154" y="9254" width="511" height="773"/>
        <rect class="fil3 str1" x="13154" y="9254" width="511" height="387"/>
       </g>
       <g>
        <rect class="fil3 str1" x="14323" y="10358" width="511" height="773"/>
        <rect class="fil3 str1" x="14323" y="10358" width="511" height="387"/>
       </g>
       <g>
        <rect class="fil3 str1" x="15492" y="10358" width="511" height="773"/>
        <rect class="fil3 str1" x="15492" y="10358" width="511" height="387"/>
       </g>
       <g>
        <rect class="fil3 str1" x="13154" y="10358" width="511" height="773"/>
        <rect class="fil3 str1" x="13154" y="10358" width="511" height="387"/>
       </g>
       <g>
        <rect class="fil1 str1" x="13141" y="11438" width="706" height="1198"/>
        <rect class="fil3 str1" x="13345" y="11649" width="299" height="723"/>
       </g>
       <rect class="fil3 str1" x="14257" y="11438" width="1746" height="953"/>
      </g>
     </g>
     <g>
      <path class="fil1 str0" d="M113 10887l104 0 0 -1837c-682,0 4710,0 4426,0l0 1837 104 0 0 1749 -4634 0 0 -1749z"/>
      <line class="fil1 str0" x1="113" y1="10887" x2="743" y2= "10887" />
      <line class="fil1 str0" x1="4143" y1="10887" x2="4772" y2= "10887" />
      <line class="fil1 str0" x1="217" y1="9050" x2="4643" y2= "9050" />
      <g>
       <rect class="fil1 str1" x="743" y="10531" width="3401" height="759"/>
       <rect class="fil3 str1" x="488" y="11562" width="539" height="837"/>
       <rect class="fil3 str1" x="3833" y="11562" width="539" height="837"/>
       <g>
        <rect class="fil1 str1" x="2921" y="11562" width="691" height="1074"/>
        <rect class="fil3 str1" x="3123" y="11772" width="288" height="655"/>
       </g>
       <g>
        <rect class="fil1 str1" x="1248" y="11562" width="691" height="1074"/>
        <rect class="fil3 str1" x="1450" y="11772" width="288" height="655"/>
       </g>
       <rect class="fil3 str1" x="2161" y="11562" width="539" height="837"/>
       <g>
        <rect class="fil3 str1" x="1018" y="9749" width="632" height="783"/>
        <path class="fil3 str1" d="M1334 9749l-316 0c0,-175 142,-316 316,-316 174,0 316,141 316,316l-316 0z"/>
       </g>
       <g>
        <rect class="fil3 str1" x="2114" y="9749" width="632" height="783"/>
        <path class="fil3 str1" d="M2430 9749l-316 0c0,-175 142,-316 316,-316 175,0 316,141 316,316l-316 0z"/>
       </g>
       <g>
        <rect class="fil3 str1" x="3211" y="9749" width="632" height="783"/>
        <path class="fil3 str1" d="M3526 9749l-315 0c0,-175 141,-316 315,-316 175,0 316,141 316,316l-316 0z"/>
       </g>
      </g>
      <rect class="fil2 str0" x="55" y="8598" width="4751" height="452"/>
     </g>
    </g>
    <g>
     <g>
      <g>
       <path class="fil1 str0" d="M22131 5270l199 -137 0 -152 291 0 0 152 199 137 92 -102 116 0 -67 206 0 135 -352 0 0 92c821,67 1467,755 1467,1594 0,1409 0,2817 0,4226l564 0c-76,-393 402,-397 348,35 28,46 33,141 15,287l1001 0 0 241 337 0 0 329 418 0 0 323 -8567 0 0 -323 418 0 0 -329 337 0 0 -241 1001 0c-18,-146 -13,-241 15,-287 -55,-437 433,-428 346,-23 0,-4 1,-8 2,-12l564 0c0,-1409 0,-2817 0,-4226 0,-839 645,-1527 1467,-1594l0 -92 -352 0 0 -135 -67 -206 116 0 92 102zm2511 6163c-1,-4 -1,-8 -2,-12 1,4 1,8 2,12z"/>
       <path class="fil2 str2" d="M20875 7195c0,1409 0,2817 0,4226l480 0 0 -4236c0,-594 526,-1076 1120,-1076 594,0 1120,482 1120,1076l0 4236 481 0c0,-1409 0,-2817 0,-4226 0,-884 -717,-1600 -1601,-1600 -884,0 -1600,716 -1600,1600z"/>
      </g>
      <path class="fil1 str2" d="M21458 11743l5 569 -5 -569m1783 -134l0 703 -1532 0 0 -703 1532 0m144 75l103 0 0 59m-1922 -59l-103 0 0 59m668 -6473l199 -137 0 -152 291 0 0 152 199 137 92 -102 116 0 -67 206 -302 0 -184 -148 -183 148 -302 0 -67 -206 116 0 92 102m830 239l-971 0 0 -135 971 0 0 135m-352 0l0 92c-89,-8 -178,-8 -267,0l0 -92 267 0m-1254 5912l0 -4236c0,-594 526,-1076 1120,-1076 594,0 1120,482 1120,1076l0 4236m-2720 -4226l0 714 0 1260 0 423 0 385 0 409 0 398 0 377 0 260 611 0 0 -260 39 0 0 -377 79 0 0 -398 83 0 0 -409 85 0 0 -385 88 0 0 -423 91 0 0 -1933c0,-290 235,-525 524,-525 290,0 525,235 525,525l0 1933 90 0 0 423 89 0 0 385 85 0 0 409 83 0 0 398 79 0 0 377 39 0 0 260 611 0 0 -260 0 -377 0 -398 0 -409 0 -385 0 -423 0 -1260 0 -714c0,-884 -717,-1600 -1601,-1600 -884,0 -1600,716 -1600,1600m-505 4689c-5,-135 128,-296 -39,-296 -22,-35 -30,-87 -22,-155 87,-405 -401,-414 -346,23 -31,51 -34,163 -9,336 -28,10 -41,34 -37,92l453 0m4210 0c6,-135 -127,-296 39,-296 23,-35 31,-87 23,-155 -87,-405 401,-414 346,23 31,51 34,163 8,336 29,10 41,34 37,92l-453 0m-2550 -275l0 -188 890 0 0 188 -890 0m-464 -188l-1255 0c-1,4 -2,8 -2,12 -8,68 0,120 22,155 110,0 90,69 65,155l0 0 1067 0 0 569 246 0 0 -628 -143 0 0 -263m1819 0l1255 0c1,4 1,8 2,12 8,68 0,120 -23,155 -109,0 -89,69 -64,155l0 0 -1067 0 0 569 -247 0 0 -628 144 0 0 -263m-2989 322c-13,45 -28,95 -26,141l19 0 0 100 0 329m4166 -570c13,45 27,95 25,141l-18 0 0 429m1779 0l418 0 0 323m-553 -21l0 0 -853 0 0 -204 -257 0c0,-142 0,-284 0,-427l0 -100 -63 0c4,-58 -8,-82 -37,-92 3,-17 5,-33 7,-49l1001 0 0 241 337 0 0 329m-7731 0l-418 0 0 323m552 0l0 0 853 0 0 -225 258 0c0,-176 0,-351 0,-527l62 0c-4,-58 9,-82 37,-92 -2,-17 -4,-33 -6,-49l-1001 0 0 241 -337 0 0 329m3295 -511l0 510 1141 0 0 -510 -1141 0m-1516 82l-534 0 0 527 267 0 0 -99 267 0 0 -428m4173 0l534 0 0 527 -267 0 0 -99 -267 0 0 -428m-4440 428l0 99 -525 0 0 225 -853 0 0 0m7462 -21l0 0 -853 0 0 -204 -524 0 0 -99 -4707 0m3370 -569l-4 569 4 -569m-1162 -322c0,-187 0,-373 0,-560 -66,28 -155,-30 -267,-173 79,-73 113,-181 102,-324 41,-65 89,-147 143,-245 -25,-70 -37,-123 -36,-160 -49,-44 -99,-103 -148,-177 -21,-26 -28,-153 -19,-382 19,-46 32,-90 37,-131l5 -1 -18 -82 -88 1c-16,-69 -21,-138 69,-162 90,-24 118,46 134,115l-81 38 18 81 7 -2c51,91 51,150 0,178 -4,49 9,130 39,243 36,19 70,49 102,92 49,-10 89,-15 121,-16 -74,-136 -8,-170 -29,-292 14,9 34,16 62,20 9,-26 20,-47 35,-64 19,18 34,42 44,73 25,-9 46,-20 63,-33 3,28 -1,224 -12,238 -7,25 -10,69 -6,130 132,0 233,105 303,314 5,149 -53,142 -177,-21 -11,49 -9,144 8,285 18,342 18,681 0,1017l-411 0z"/>
     </g>
     <g>
      <path class="fil3 str0" d="M22131 5270l199 -137 0 -152 291 0 0 152 199 137 92 -102 116 0 -67 206 0 135c-327,0 -645,0 -971,0l0 -135 -67 -206 116 0 92 102z"/>
      <path class="fil3 str2" d="M22330 11421c0,-187 0,-373 0,-560 -66,28 -155,-30 -267,-173 79,-73 113,-181 102,-324 41,-65 89,-147 143,-245 -25,-70 -37,-123 -36,-160 -49,-44 -99,-103 -148,-177 -21,-26 -28,-153 -19,-382 19,-46 32,-90 37,-131l5 -1 -18 -82 -88 1c-16,-69 -21,-138 69,-162 90,-24 118,46 134,115l-81 38 18 81 7 -2c51,91 51,150 0,178 -4,49 9,130 39,243 36,19 70,49 102,92 49,-10 89,-15 121,-16 -74,-136 -8,-170 -29,-292 14,9 34,16 62,20 9,-26 20,-47 35,-64 19,18 34,42 44,73 25,-9 46,-20 63,-33 3,28 -1,224 -12,238 -7,25 -10,69 -6,130 132,0 233,105 303,314 5,149 -53,142 -177,-21 -11,49 -9,144 8,285 18,342 18,681 0,1017l-411 0z"/>
      <path class="fil3 str2" d="M24578 11831c5,-136 -128,-297 38,-297 23,-35 31,-86 23,-155 -87,-405 401,-414 346,23 31,51 34,163 9,336 28,10 41,34 37,93l-453 0z"/>
      <path class="fil3 str2" d="M20370 11864c-5,-135 128,-296 -38,-296 -23,-35 -31,-87 -23,-155 87,-405 -401,-414 -346,22 -31,52 -34,164 -9,337 -28,9 -41,33 -37,92l453 0z"/>
     </g>
    </g>
   </g>
  </g>
 </g>
</svg>
